HIERARCHY
ROOT hips
{
  OFFSET 0 10.6860622 2.3727825e-15
  CHANNELS 6 Xposition Yposition Zposition Yrotation Xrotation Zrotation
  JOINT leftUpperLeg
  {
    OFFSET 0.6642549969 -0.9402397400000004 0
    CHANNELS 3 Yrotation Xrotation Zrotation
    JOINT leftLowerLeg
    {
      OFFSET 0 -3.997221335632195 0
      CHANNELS 3 Yrotation Xrotation Zrotation
      JOINT leftFoot
      {
        OFFSET -0.13777839790000004 -4.6145792000000005 -0.22186036399999998
        CHANNELS 3 Yrotation Xrotation Zrotation
        JOINT leftToes
        {
          OFFSET -0.03777410834999995 -0.9130806927000008 0.85230013
          CHANNELS 3 Yrotation Xrotation Zrotation
          End Site
          {
            OFFSET -0.03777410834999995 -0.9130806927000008 0.85230013
          }
        }
      }
    }
  }
  JOINT rightUpperLeg
  {
    OFFSET -0.6642778626 -0.9402397400000004 0
    CHANNELS 3 Yrotation Xrotation Zrotation
    JOINT rightLowerLeg
    {
      OFFSET 0 -3.997221452859387 0
      CHANNELS 3 Yrotation Xrotation Zrotation
      JOINT rightFoot
      {
        OFFSET 0.1377926176 -4.6145792000000005 -0.22185782299999995
        CHANNELS 3 Yrotation Xrotation Zrotation
        JOINT rightToes
        {
          OFFSET 0.037780746850000047 -0.9130806927000008 0.85230167
          CHANNELS 3 Yrotation Xrotation Zrotation
          End Site
          {
            OFFSET 0.037780746850000047 -0.9130806927000008 0.85230167
          }
        }
      }
    }
  }
  JOINT spine
  {
    OFFSET 0 0.13988381660000015 0
    CHANNELS 3 Yrotation Xrotation Zrotation
    JOINT chest
    {
      OFFSET 0 0.6191039003973773 0
      CHANNELS 3 Yrotation Xrotation Zrotation
      JOINT upperChest
      {
        OFFSET 0 0.9855186130586943 0
        CHANNELS 3 Yrotation Xrotation Zrotation
        JOINT leftShoulder
        {
          OFFSET 0.1807663869 1.5087829790000005 0
          CHANNELS 3 Yrotation Xrotation Zrotation
          JOINT leftUpperArm
          {
            OFFSET 0.5985063006419806 0 0
            CHANNELS 3 Yrotation Xrotation Zrotation
            JOINT leftLowerArm
            {
              OFFSET 2.2993332369501065 0 0
              CHANNELS 3 Yrotation Xrotation Zrotation
              JOINT leftHand
              {
                OFFSET 2.395047042602395 0 0
                CHANNELS 3 Yrotation Xrotation Zrotation
                JOINT leftIndexProximal
                {
                  OFFSET 0.5766295810000004 0.04556643899499946 0.17265095988184
                  CHANNELS 3 Yrotation Xrotation Zrotation
                  JOINT leftIndexIntermediate
                  {
                    OFFSET 0.2957229000000008 -0.019352197700001517 -0.007932640616999987
                    CHANNELS 3 Yrotation Xrotation Zrotation
                    JOINT leftIndexDistal
                    {
                      OFFSET 0.19008243099999922 -0.012484908149998475 -0.002786250786000012
                      CHANNELS 3 Yrotation Xrotation Zrotation
                      End Site
                      {
                        OFFSET 0.19008243099999922 -0.012484908149998475 -0.002786250786000012
                      }
                    }
                  }
                }
                JOINT leftMiddleProximal
                {
                  OFFSET 0.5834975091000001 0.0524350405149987 0.02204081888183999
                  CHANNELS 3 Yrotation Xrotation Zrotation
                  JOINT leftMiddleIntermediate
                  {
                    OFFSET 0.33880573540000003 -0.019871473270000717 -0.00000971183179999946
                    CHANNELS 3 Yrotation Xrotation Zrotation
                    JOINT leftMiddleDistal
                    {
                      OFFSET 0.20676022730000088 -0.012221336379999448 0.0001471936708000235
                      CHANNELS 3 Yrotation Xrotation Zrotation
                      End Site
                      {
                        OFFSET 0.20676022730000088 -0.012221336379999448 0.0001471936708000235
                      }
                    }
                  }
                }
                JOINT leftLittleProximal
                {
                  OFFSET 0.5344154683999995 -0.012880921405001189 -0.24414037221816004
                  CHANNELS 3 Yrotation Xrotation Zrotation
                  JOINT leftLittleIntermediate
                  {
                    OFFSET 0.21758961730000093 -0.011650919939999227 0.011893592810000034
                    CHANNELS 3 Yrotation Xrotation Zrotation
                    JOINT leftLittleDistal
                    {
                      OFFSET 0.1475273964999999 -0.008152365682999818 0.006001092492999946
                      CHANNELS 3 Yrotation Xrotation Zrotation
                      End Site
                      {
                        OFFSET 0.1475273964999999 -0.008152365682999818 0.006001092492999946
                      }
                    }
                  }
                }
                JOINT leftRingProximal
                {
                  OFFSET 0.5799399463000003 0.026911854694997794 -0.12150566991816003
                  CHANNELS 3 Yrotation Xrotation Zrotation
                  JOINT leftRingIntermediate
                  {
                    OFFSET 0.26167887460000006 -0.013480186499999602 0.010996293000000053
                    CHANNELS 3 Yrotation Xrotation Zrotation
                    JOINT leftRingDistal
                    {
                      OFFSET 0.17667108799999987 -0.008990287899999228 0.0055541023999999065
                      CHANNELS 3 Yrotation Xrotation Zrotation
                      End Site
                      {
                        OFFSET 0.17667108799999987 -0.008990287899999228 0.0055541023999999065
                      }
                    }
                  }
                }
                JOINT leftThumbProximal
                {
                  OFFSET 0.11018806699999972 -0.09448718900500053 0.17047963138184
                  CHANNELS 3 Yrotation Xrotation Zrotation
                  JOINT leftThumbIntermediate
                  {
                    OFFSET 0.31062601459999983 -0.08126270900000132 0.15443142000000007
                    CHANNELS 3 Yrotation Xrotation Zrotation
                    JOINT leftThumbDistal
                    {
                      OFFSET 0.21627175790000086 -0.08833193599999878 0.018771167799999988
                      CHANNELS 3 Yrotation Xrotation Zrotation
                      End Site
                      {
                        OFFSET 0.21627175790000086 -0.08833193599999878 0.018771167799999988
                      }
                    }
                  }
                }
              }
            }
          }
        }
        JOINT neck
        {
          OFFSET 0 1.5463305265074576 0
          CHANNELS 3 Yrotation Xrotation Zrotation
          JOINT head
          {
            OFFSET 0 0.8456443600000344 0
            CHANNELS 3 Yrotation Xrotation Zrotation
            JOINT leftEye
            {
              OFFSET 0.30408573140000006 0.5104519199999995 0.1276382305
              CHANNELS 3 Yrotation Xrotation Zrotation
              End Site
              {
                OFFSET 0.30408573140000006 0.5104519199999995 0.1276382305
              }
            }
            JOINT rightEye
            {
              OFFSET -0.30409491089999996 0.5104519199999995 0.1276379445
              CHANNELS 3 Yrotation Xrotation Zrotation
              End Site
              {
                OFFSET -0.30409491089999996 0.5104519199999995 0.1276379445
              }
            }
            JOINT jaw
            {
              OFFSET -3.155239131000001e-7 -0.11984121820000082 0.60178107
              CHANNELS 3 Yrotation Xrotation Zrotation
              End Site
              {
                OFFSET -3.155239131000001e-7 -0.11984121820000082 0.60178107
              }
            }
          }
        }
        JOINT rightShoulder
        {
          OFFSET -0.1807303465 1.5087829790000005 0
          CHANNELS 3 Yrotation Xrotation Zrotation
          JOINT rightUpperArm
          {
            OFFSET -0.5985063796536958 0 0
            CHANNELS 3 Yrotation Xrotation Zrotation
            JOINT rightLowerArm
            {
              OFFSET -2.2993322059002854 0 0
              CHANNELS 3 Yrotation Xrotation Zrotation
              JOINT rightHand
              {
                OFFSET -2.395045314457259 0 0
                CHANNELS 3 Yrotation Xrotation Zrotation
                JOINT rightIndexProximal
                {
                  OFFSET -0.5764487688300002 0.0441371204405987 0.17361932004999997
                  CHANNELS 3 Yrotation Xrotation Zrotation
                  JOINT rightIndexIntermediate
                  {
                    OFFSET -0.29573011380000047 -0.01934826376999843 -0.007698921482999974
                    CHANNELS 3 Yrotation Xrotation Zrotation
                    JOINT rightIndexDistal
                    {
                      OFFSET -0.19008373999999884 -0.012503266380000655 -0.0026365778999999897
                      CHANNELS 3 Yrotation Xrotation Zrotation
                      End Site
                      {
                        OFFSET -0.19008373999999884 -0.012503266380000655 -0.0026365778999999897
                      }
                    }
                  }
                }
                JOINT rightMiddleProximal
                {
                  OFFSET -0.5834852037300005 0.05211639405060153 0.02307162440000001
                  CHANNELS 3 Yrotation Xrotation Zrotation
                  JOINT rightMiddleIntermediate
                  {
                    OFFSET -0.33880114510000003 -0.019952774050000954 0.0002455003561999819
                    CHANNELS 3 Yrotation Xrotation Zrotation
                    JOINT rightMiddleDistal
                    {
                      OFFSET -0.20675694929999955 -0.012273788999999091 0.00030209124000002766
                      CHANNELS 3 Yrotation Xrotation Zrotation
                      End Site
                      {
                        OFFSET -0.20675694929999955 -0.012273788999999091 0.00030209124000002766
                      }
                    }
                  }
                }
                JOINT rightLittleProximal
                {
                  OFFSET -0.5346811737299992 -0.011214256288399227 -0.24363941305000003
                  CHANNELS 3 Yrotation Xrotation Zrotation
                  JOINT rightLittleIntermediate
                  {
                    OFFSET -0.21757715980000092 -0.011771559690000988 0.01201554387
                    CHANNELS 3 Yrotation Xrotation Zrotation
                    JOINT rightLittleDistal
                    {
                      OFFSET -0.1475201849000004 -0.00822055339600003 0.006082065407000015
                      CHANNELS 3 Yrotation Xrotation Zrotation
                      End Site
                      {
                        OFFSET -0.1475201849000004 -0.00822055339600003 0.006082065407000015
                      }
                    }
                  }
                }
                JOINT rightRingProximal
                {
                  OFFSET -0.5800810755299999 0.027657985680600072 -0.12066365025000003
                  CHANNELS 3 Yrotation Xrotation Zrotation
                  JOINT rightRingIntermediate
                  {
                    OFFSET -0.26166445029999974 -0.013623118409999302 0.011164098990000045
                    CHANNELS 3 Yrotation Xrotation Zrotation
                    JOINT rightRingDistal
                    {
                      OFFSET -0.17666387530000027 -0.009072900100000503 0.005668185599999959
                      CHANNELS 3 Yrotation Xrotation Zrotation
                      End Site
                      {
                        OFFSET -0.17666387530000027 -0.009072900100000503 0.005668185599999959
                      }
                    }
                  }
                }
                JOINT rightThumbProximal
                {
                  OFFSET -0.10997596379000074 -0.09577489355940072 0.16989765924999997
                  CHANNELS 3 Yrotation Xrotation Zrotation
                  JOINT rightThumbIntermediate
                  {
                    OFFSET -0.31036620999999986 -0.08229339117999834 0.15440884469999996
                    CHANNELS 3 Yrotation Xrotation Zrotation
                    JOINT rightThumbDistal
                    {
                      OFFSET -0.21631306399999906 -0.08825326400000111 0.018656797720000014
                      CHANNELS 3 Yrotation Xrotation Zrotation
                      End Site
                      {
                        OFFSET -0.21631306399999906 -0.08825326400000111 0.018656797720000014
                      }
                    }
                  }
                }
              }
            }
          }
        }
      }
    }
  }
}
MOTION
Frames: 9
Frame Time: 0.03333333333333333
0 11.682712981546562 0 0 0 0 0 0 -5.826343164929014 -0.3712483961610101 -3.6333298826370974 5.838118207697276 0 0 0 0 0 0 0 0 5.826343164929014 0.3712483961610101 -3.6333298826370974 -5.838118207697276 0 0 0 0 0 0 0 -4.610651315171937 0 0 3.0831277533083026 0 0 0 0 0 1.5275236235667615 0 0 0 0 0 0 0 0 0 0 0 0 0 0 0 0 0 0 0 0 0 0 0 0 0 0 0 0 0 0 0 0 0 0 0 0 0 0 0 0 0 0 0 0 0 0 0 0 0 0 0 0 0 0 0 0 1.5275236235667615 0 0 0 0 0 0 0 0 0 0 0 0 0 0 1.5275236235667615 0 0 0 0 0 0 0 0 0 0 0 0 0 0 0 0 0 0 0 0 0 0 0 0 0 0 0 0 0 0 0 0 0 0 0 0 0 0 0 0 0 0 0 0 0 0 0 0 0 0 0 0 0 0 0
-0.10561289554348381 -8.254479453854357 4.176458038423829 -180 -36.43379010648038 -5.179553677587657e-15 84.19579515579167 -50.71938583082579 -35.63730057767429 -61.53657996993325 26.600746944101083 -32.586319385109064 43.84954133181081 18.94737156263571 26.36590448756602 0 0 0 -84.23493177037793 -50.73171292496963 35.66435161576785 61.55401791700918 26.617100798492192 32.58444014626062 -43.86495963248815 18.93473266607561 -26.382829859267414 0 0 0 -0.759550960332756 33.806946898675655 -2.695796579358392 1.105094708093677 40.07367148488047 0.8842960018586777 0 0 0 -20.497623919450117 9.373118626890887 10.983741384408832 -24.21990459481853 -21.766603158636148 -51.73909620276802 1.1862673634745855 0.9472916770511245 -6.7248531820796 -22.0250549240707 -11.530886631964144 2.1475333575550857 0 0 0 0 0 0 0 0 0 0 0 0 0 0 0 0 0 0 0 0 0 0 0 0 0 0 0 0 0 0 0 0 0 0 0 0 0 0 0 0 0 0 0 0 0 0 16.706032842668208 0 0 10.422686231294554 0 0 0 0 0 0 0 0 0 0 21.29642108954353 10.303109592200306 -9.392682492099782 23.85669819286432 -21.31290358068148 50.98758100630111 -1.4027467256341049 0.954702065660745 6.306235201564148 22.931713601296 -13.147120337291534 -2.6929126845850213 0 0 0 0 0 0 0 0 0 0 0 0 0 0 0 0 0 0 0 0 0 0 0 0 0 0 0 0 0 0 0 0 0 0 0 0 0 0 0 0 0 0 0 0 0
-0.10561289554348381 -8.254479453854357 4.127729006037769 -180 -37.87140020668823 -5.4567359279744075e-15 83.34778112989625 -50.800734460220355 -33.787700227620945 -61.89138947822996 27.19824659268527 -33.272730279137505 43.268284350198016 18.4792484637195 26.36949356375583 0 0 0 -83.38466819960155 -50.81292626799844 33.81288644196215 61.9077004671522 27.213731026364 33.27089945231197 -43.28297188320613 18.467297974781626 -26.385639812305342 0 0 0 -0.7560815516694727 33.41814290914352 -2.6895596064594907 1.099719121924567 39.740493923566675 0.8758299595282618 0 0 0 -20.291599895328464 9.958593084461524 10.40852915558996 -24.21990627161552 -21.766603158636148 -51.73909392563877 1.1862673634745855 0.9472916770511245 -6.7248531820796 -20.933227981123824 -11.092198828495649 0.9828239455102452 0 0 0 0 0 0 0 0 0 0 0 0 0 0 0 0 0 0 0 0 0 0 0 0 0 0 0 0 0 0 0 0 0 0 0 0 0 0 0 0 0 0 0 0 0 0 15.884616145956853 0 0 9.844819177971152 0 0 0 0 0 0 0 0 0 0 21.055396019825853 10.833593388637107 -8.906728123228238 23.856693357634907 -21.31290174778103 50.987586162244064 -1.4027467256341049 0.954702065660745 6.306235201564148 21.76487040964916 -12.62870596766889 -1.473856510598053 0 0 0 0 0 0 0 0 0 0 0 0 0 0 0 0 0 0 0 0 0 0 0 0 0 0 0 0 0 0 0 0 0 0 0 0 0 0 0 0 0 0 0 0 0
-0.10561289554348381 -8.254479453854357 4.03027120965792 -180 -40.75576433055461 -6.04721355505835e-15 81.63322788332361 -50.91139343544311 -30.06594948440316 -62.632021042760954 28.38286050506956 -34.671068407629235 42.10928646182144 17.542433627410762 26.391624223791162 0 0 0 -81.66562404900355 -50.92312662405229 30.0874155386478 62.645991547942664 28.396639537295727 34.66922525226584 -42.12255991720296 17.531835794936708 -26.40622568171352 0 0 0 -0.7493371089901842 32.64036083041818 -2.6772474541674347 1.0892334012740106 39.07401796714675 0.8591359745720466 0 0 0 -19.895936748276856 11.13686158789251 9.259905485488426 -24.21990459481853 -21.766601319997882 -51.739091038244666 1.1862673634745855 0.9472916770511245 -6.7248531820796 -18.775352122879195 -10.147069881576714 -1.322775822754329 0 0 0 0 0 0 0 0 0 0 0 0 0 0 0 0 0 0 0 0 0 0 0 0 0 0 0 0 0 0 0 0 0 0 0 0 0 0 0 0 0 0 0 0 0 0 14.233212980880754 0 0 8.686206939728702 0 0 0 0 0 0 0 0 0 0 20.585386068505876 11.901493213872623 -7.9380197985142695 23.856693357634907 -21.312896249079813 50.987583313881714 -1.4027467256341049 0.954702065660745 6.306235201564148 19.464519731620477 -11.516093938710009 0.9325042689192995 0 0 0 0 0 0 0 0 0 0 0 0 0 0 0 0 0 0 0 0 0 0 0 0 0 0 0 0 0 0 0 0 0 0 0 0 0 0 0 0 0 0 0 0 0
-0.10561289554348381 -8.254479453854357 3.98154217727186 -180 -42.201611583364915 -6.362723142954724e-15 80.7695933834943 -50.94033089994228 -28.196991882312584 -63.01813380217636 28.96956288246834 -35.38329953724263 41.53149245405601 17.07391482481789 26.41011000085362 0 0 0 -80.79970811066354 -50.95173528848976 28.21656232814342 63.030905793749454 28.98250579054317 35.38141860169217 -41.54403955073119 17.06397983256971 -26.423913626409554 0 0 0 -0.7460610745160943 32.25140527686609 -2.671171777205251 1.0841190835001737 38.74074216729908 0.8509041773262932 0 0 0 -19.70639143464952 11.72941210428687 8.68640476763371 -24.21990459481853 -21.766601319997882 -51.739091038244666 1.186267470188001 0.9472916770511245 -6.724852334064076 -17.710794178649724 -9.641469487707651 -2.4621903365484377 0 0 0 0 0 0 0 0 0 0 0 0 0 0 0 0 0 0 0 0 0 0 0 0 0 0 0 0 0 0 0 0 0 0 0 0 0 0 0 0 0 0 0 0 0 0 13.403377693351374 0 0 8.105515273801576 0 0 0 0 0 0 0 0 0 0 20.356450398605094 12.438727674287355 -7.455216518992887 23.856693357634907 -21.31290174778103 50.98758100630111 -1.4027467256341049 0.954702065660745 6.306235201564148 18.3326807816288 -10.923029955416567 2.1181618301539626 0 0 0 0 0 0 0 0 0 0 0 0 0 0 0 0 0 0 0 0 0 0 0 0 0 0 0 0 0 0 0 0 0 0 0 0 0 0 0 0 0 0 0 0 0
-0.10561289554348381 -8.254479453854357 3.884084380892012 -180 -45.09836251711753 -7.040842312054495e-15 79.03673485670721 -50.94479150395558 -24.450831037100322 -63.82277198275553 30.130684063443674 -36.83474701304715 40.379064537653456 16.13708286257384 26.461695164340664 0 0 0 -79.06244258857741 -50.95538376586463 24.466754707096623 63.83308467665139 30.142001461758017 36.83271868845666 -40.390203730808366 16.128467095053157 -26.473952662262032 0 0 0 -0.7396925741912781 31.47337131365322 -2.6591697903011333 1.0741437297335295 38.07411734361776 0.834667866990519 0 0 0 -19.34406306866316 12.920687671206203 7.540781779870674 -24.21990459481853 -21.766604997274438 -51.73909392563877 1.1862673634745855 0.9472916770511245 -6.7248531820796 -15.613888267647443 -8.566597634599505 -4.7108545309854755 0 0 0 0 0 0 0 0 0 0 0 0 0 0 0 0 0 0 0 0 0 0 0 0 0 0 0 0 0 0 0 0 0 0 0 0 0 0 0 0 0 0 0 0 0 0 11.735799445367649 0 0 6.941500996121722 0 0 0 0 0 0 0 0 0 0 19.91085743362082 13.519315616172442 -6.492590413193442 23.856693357634907 -21.31290174778103 50.987583313881714 -1.4027467256341049 0.954702065660745 6.306235201564148 16.109410729155456 -9.66656121125194 4.450744861563311 0 0 0 0 0 0 0 0 0 0 0 0 0 0 0 0 0 0 0 0 0 0 0 0 0 0 0 0 0 0 0 0 0 0 0 0 0 0 0 0 0 0 0 0 0
-0.10561289554348381 -8.254479453854357 3.835355616898223 -180 -46.548341509190315 -7.40657347113085e-15 78.17051929134813 -50.920228262160286 -22.576942190111478 -64.241603117309 30.704667637156415 -37.574297114679545 39.80435264945493 15.668947575613053 26.494733867762147 0 0 0 -78.1940841231698 -50.930338098560625 22.591088087811908 64.25065439680984 30.715193785132872 37.5721540396059 -39.814812822522676 15.660972518322023 -26.506225190197625 0 0 0 -0.736599218928057 31.084326153796074 -2.6532445634655133 1.0692787385067215 37.7407811827164 0.8266586819790319 0 0 0 -19.171378500736587 13.519166338384563 6.968563483206026 -24.21990459481853 -21.766601319997882 -51.739091038244666 1.1862673634745855 0.9472916770511245 -6.7248531820796 -14.582787045584045 -7.99840697825028 -5.8188750773283475 0 0 0 0 0 0 0 0 0 0 0 0 0 0 0 0 0 0 0 0 0 0 0 0 0 0 0 0 0 0 0 0 0 0 0 0 0 0 0 0 0 0 0 0 0 0 10.89821120775713 0 0 6.358231845361832 0 0 0 0 0 0 0 0 0 0 19.69425135716445 14.06247725002211 -6.012705796856317 23.856696516567055 -21.312905413581955 50.98758901060665 -1.4027467256341049 0.954702065660745 6.306235201564148 15.019299670335268 -9.00456566749843 5.596368594422115 0 0 0 0 0 0 0 0 0 0 0 0 0 0 0 0 0 0 0 0 0 0 0 0 0 0 0 0 0 0 0 0 0 0 0 0 0 0 0 0 0 0 0 0 0
-0.10561289554348381 -8.254479453854357 3.737897552126103 -180 -49.449192169266325 -8.200773964159225e-15 76.446004687311 -50.81766658425677 -18.835792248850634 -65.11298310271712 31.838397672356216 -39.08178047013054 38.657813544658154 14.733669752414547 26.575177029276045 0 0 0 -76.46533388788778 -50.82660260509982 18.84644701248839 65.11944742462057 31.847378648464616 39.079335761285826 -38.66691001763588 14.726967626381265 -26.585115918509214 0 0 0 -0.7305899451341245 30.306218427805252 -2.641538099212025 1.05979004541673 37.07410508888962 0.8108539097550922 0 0 0 -18.843168832212896 14.721139627918248 5.8250322441089235 -24.21990459481853 -21.766601319997882 -51.739091038244666 1.1862673634745855 0.9472916770511245 -6.7248531820796 -12.558066911680983 -6.803463542416947 -7.999552357060301 0 0 0 0 0 0 0 0 0 0 0 0 0 0 0 0 0 0 0 0 0 0 0 0 0 0 0 0 0 0 0 0 0 0 0 0 0 0 0 0 0 0 0 0 0 0 9.215829847683422 0 0 5.18932196725521 0 0 0 0 0 0 0 0 0 0 19.273559646841623 15.15409670194617 -5.055651091289395 23.856693357634907 -21.31290174778103 50.987583313881714 -1.4027467256341049 0.954702065660745 6.306235201564148 12.884972919227366 -7.616862693485412 7.843474572610065 0 0 0 0 0 0 0 0 0 0 0 0 0 0 0 0 0 0 0 0 0 0 0 0 0 0 0 0 0 0 0 0 0 0 0 0 0 0 0 0 0 0 0 0 0
-0.10561289554348381 -8.254479453854357 3.689168788132314 -180 -50.89913795793457 -8.633792480142964e-15 75.59056381565652 -50.73985004477605 -16.9717159544895 -65.56583243387679 32.397682882181115 -39.85003177113908 38.08591889769245 14.266701292778045 26.622506129475447 0 0 0 -75.60787983918448 -50.748128910694916 16.98072035218314 65.57095276407496 32.40592624554733 39.84738619774155 -38.094338504286654 14.260621989222775 -26.63167437278242 0 0 0 -0.7276720854127874 29.917171629789475 -2.635754822223591 1.0551623908707415 36.7407641301128 0.803054754574541 0 0 0 -18.68773508122026 15.324377774404146 5.253609037682438 -24.21990459481853 -21.766601319997882 -51.739091038244666 1.1862673634745855 0.9472916770511245 -6.7248531820796 -11.565432007083063 -6.177983422261737 -9.071246755682642 0 0 0 0 0 0 0 0 0 0 0 0 0 0 0 0 0 0 0 0 0 0 0 0 0 0 0 0 0 0 0 0 0 0 0 0 0 0 0 0 0 0 0 0 0 0 8.371200744564108 0 0 4.603736028971396 0 0 0 0 0 0 0 0 0 0 19.06952494866958 15.702363917133837 -4.5784154529403285 23.85669168133763 -21.312898081980197 50.987586162244064 -1.4027467256341049 0.954702065660745 6.306235201564148 11.84172309591566 -6.892776225635249 8.944006823305601 0 0 0 0 0 0 0 0 0 0 0 0 0 0 0 0 0 0 0 0 0 0 0 0 0 0 0 0 0 0 0 0 0 0 0 0 0 0 0 0 0 0 0 0 0
